<?xml version="1.0" encoding="UTF-8" standalone="no"?>
<svg
   xmlns:dc="http://purl.org/dc/elements/1.1/"
   xmlns:cc="http://creativecommons.org/ns#"
   xmlns:rdf="http://www.w3.org/1999/02/22-rdf-syntax-ns#"
   xmlns:svg="http://www.w3.org/2000/svg"
   xmlns="http://www.w3.org/2000/svg"
   xmlns:sodipodi="http://sodipodi.sourceforge.net/DTD/sodipodi-0.dtd"
   xmlns:inkscape="http://www.inkscape.org/namespaces/inkscape"
   version="1.1"
   width="80.301003"
   height="16.669922"
   id="svg6730"
   sodipodi:docname="logotipo.svg"
   inkscape:version="0.92.2 5c3e80d, 2017-08-06">
  <metadata
     id="metadata6736">
    <rdf:RDF>
      <cc:Work
         rdf:about="">
        <dc:format>image/svg+xml</dc:format>
        <dc:type
           rdf:resource="http://purl.org/dc/dcmitype/StillImage" />
        <dc:title></dc:title>
      </cc:Work>
    </rdf:RDF>
  </metadata>
  <defs
     id="defs6734" />
  <sodipodi:namedview
     pagecolor="#ffffff"
     bordercolor="#666666"
     borderopacity="1"
     objecttolerance="10"
     gridtolerance="10"
     guidetolerance="10"
     inkscape:pageopacity="0"
     inkscape:pageshadow="2"
     inkscape:window-width="2560"
     inkscape:window-height="1011"
     id="namedview6732"
     showgrid="false"
     fit-margin-top="0"
     fit-margin-left="0"
     fit-margin-right="0"
     fit-margin-bottom="0"
     inkscape:zoom="11.09884"
     inkscape:cx="49.320493"
     inkscape:cy="9.9150444"
     inkscape:window-x="0"
     inkscape:window-y="40"
     inkscape:window-maximized="1"
     inkscape:current-layer="Layer1001" />
  <g
     id="Layer1000"
     transform="translate(-164.4396,-245.33753)">
    <g
       id="Layer1001">
      <path
         d="m 165.6044,248.90003 h 0.373 c 0.6069,0 1.0389,-0.0915 1.296,-0.276 0.2588,-0.1846 0.3881,-0.487 0.3881,-0.9114 0,-0.375 -0.1179,-0.6528 -0.3521,-0.8337 -0.2341,-0.1808 -0.5918,-0.2701 -1.0751,-0.2701 h -0.6299 z m -0.0113,3.6193 h 0.9246 c 0.5443,0 0.944,-0.1006 1.2008,-0.3044 0.2571,-0.2016 0.3846,-0.5156 0.3846,-0.94 0,-0.4606 -0.1332,-0.8087 -0.4016,-1.0465 -0.2685,-0.2381 -0.6622,-0.3581 -1.1838,-0.3581 h -0.9246 z m 0.5915,-7.02 c 0.866,0 1.5225,0.1902 1.9735,0.5689 0.4493,0.3787 0.6738,0.9307 0.6738,1.6558 0,0.3347 -0.0742,0.6298 -0.2208,0.8866 -0.1465,0.2571 -0.3597,0.4683 -0.6412,0.6356 0.3957,0.1182 0.7098,0.3464 0.94,0.6851 0.2302,0.3387 0.3464,0.7421 0.3464,1.2104 0,0.3787 -0.0706,0.7344 -0.2112,1.0675 -0.1429,0.3331 -0.337,0.6089 -0.5862,0.8277 -0.2455,0.2095 -0.5233,0.358 -0.8337,0.4473 -0.3101,0.0896 -0.7478,0.1333 -1.313,0.1333 h -1.8726 v -8.1182 z m 5.302,4.2151 h 0.6032 c 0.8127,0 1.4196,-0.1312 1.8176,-0.3957 0.3977,-0.2647 0.5955,-0.6661 0.5955,-1.2047 0,-0.5233 -0.1712,-0.9096 -0.5119,-1.1551 -0.3424,-0.2455 -0.883,-0.3674 -1.6234,-0.3674 h -0.881 z m 0,3.9031 h -1.1761 v -8.1182 h 2.3425 c 0.9726,0 1.7167,0.2245 2.2306,0.6735 0.5117,0.451 0.7688,1.1019 0.7688,1.9525 0,0.6625 -0.2152,1.2141 -0.6432,1.6594 -0.4303,0.4437 -0.9839,0.6815 -1.6594,0.7158 l 2.3026,3.117 h -1.4729 l -2.6929,-3.7698 z m 5.197,-8.1182 h 1.1761 v 5.1647 c 0,0.7345 0.1103,1.2464 0.3291,1.5319 0.2188,0.2874 0.5939,0.43 1.1211,0.43 0.5023,0 0.8564,-0.1465 1.0656,-0.4377 0.2074,-0.2911 0.312,-0.801 0.312,-1.5242 v -5.1647 h 1.1761 v 5.1534 c 0,0.5499 -0.0306,0.9703 -0.0912,1.2654 -0.063,0.2931 -0.1639,0.5479 -0.3048,0.7631 -0.2454,0.371 -0.5442,0.6471 -0.8943,0.8277 -0.3521,0.1808 -0.7651,0.2704 -1.2407,0.2704 -0.5213,0 -0.959,-0.0876 -1.317,-0.2627 -0.3557,-0.1732 -0.6641,-0.4491 -0.9247,-0.8241 -0.1445,-0.2148 -0.2494,-0.4566 -0.312,-0.7248 -0.063,-0.2684 -0.0953,-0.7061 -0.0953,-1.315 z m 7.7051,8.1182 h -1.1761 v -8.1182 h 1.2104 l 3.9867,6.1447 -0.055,-6.1447 h 1.1588 v 8.1182 h -1.1265 l -4.0762,-6.3275 z m 7.401,-4.0972 c 0,0.4226 0.0703,0.824 0.2112,1.2007 0.1409,0.377 0.3444,0.7042 0.6089,0.9783 0.2778,0.2911 0.5995,0.5156 0.9629,0.6755 0.3634,0.1598 0.7365,0.2398 1.1152,0.2398 0.8393,0 1.5414,-0.2988 2.1067,-0.8944 0.5652,-0.5975 0.8467,-1.3379 0.8467,-2.2226 0,-0.375 -0.0683,-0.7347 -0.2035,-1.0735 -0.1353,-0.3404 -0.3331,-0.6545 -0.5939,-0.94 -0.3081,-0.331 -0.6375,-0.5748 -0.9896,-0.7327 -0.3501,-0.1579 -0.7401,-0.2378 -1.1664,-0.2378 -0.3824,0 -0.7478,0.0722 -1.0922,0.2168 -0.3464,0.1449 -0.6528,0.356 -0.9193,0.6302 -0.2798,0.2871 -0.4966,0.6202 -0.6525,0.9989 -0.1562,0.3787 -0.2342,0.7651 -0.2342,1.1608 z m -1.2274,-0.0114 c 0,-0.5689 0.1083,-1.1075 0.3235,-1.6174 0.2151,-0.5103 0.5309,-0.9689 0.9476,-1.3779 0.394,-0.3864 0.8317,-0.6795 1.313,-0.8774 0.4816,-0.1998 0.9992,-0.2987 1.5528,-0.2987 0.5672,0 1.0945,0.0989 1.5797,0.2987 0.4851,0.1979 0.9287,0.495 1.3301,0.8887 0.413,0.4054 0.7231,0.8583 0.9306,1.3606 0.2075,0.5026 0.3121,1.0429 0.3121,1.6234 0,0.5746 -0.0896,1.1055 -0.2685,1.5908 -0.1769,0.4853 -0.4453,0.9213 -0.801,1.3074 -0.4207,0.4549 -0.8907,0.7954 -1.4083,1.0258 -0.5196,0.2302 -1.0808,0.3464 -1.686,0.3464 -0.6109,0 -1.1722,-0.1182 -1.6861,-0.352 -0.5156,-0.2342 -0.9779,-0.5806 -1.3853,-1.0429 -0.3464,-0.3827 -0.6089,-0.8184 -0.786,-1.3073 -0.1789,-0.4873 -0.2682,-1.0106 -0.2682,-1.5682 z m 17.1097,4.1086 h -4.9782 v -1.1532 l 3.5509,-5.8212 h -3.3225 v -1.1438 h 4.6831 v 1.0256 l -3.6802,5.9717 h 3.7469 z m 1.7985,-4.0972 c 0,0.4226 0.0703,0.824 0.2112,1.2007 0.1409,0.377 0.3444,0.7042 0.6089,0.9783 0.2778,0.2911 0.5995,0.5156 0.9629,0.6755 0.3634,0.1598 0.7365,0.2398 1.1152,0.2398 0.8393,0 1.5415,-0.2988 2.1067,-0.8944 0.5652,-0.5975 0.8467,-1.3379 0.8467,-2.2226 0,-0.375 -0.0683,-0.7347 -0.2035,-1.0735 -0.1352,-0.3404 -0.3331,-0.6545 -0.5939,-0.94 -0.3081,-0.331 -0.6375,-0.5748 -0.9896,-0.7327 -0.35,-0.1579 -0.7401,-0.2378 -1.1664,-0.2378 -0.3824,0 -0.7478,0.0722 -1.0922,0.2168 -0.3464,0.1449 -0.6528,0.356 -0.9193,0.6302 -0.2798,0.2871 -0.4966,0.6202 -0.6525,0.9989 -0.1562,0.3787 -0.2342,0.7651 -0.2342,1.1608 z m -1.2274,-0.0114 c 0,-0.5689 0.1083,-1.1075 0.3235,-1.6174 0.2151,-0.5103 0.5309,-0.9689 0.9476,-1.3779 0.394,-0.3864 0.8317,-0.6795 1.313,-0.8774 0.4816,-0.1998 0.9992,-0.2987 1.5528,-0.2987 0.5672,0 1.0945,0.0989 1.5798,0.2987 0.485,0.1979 0.9286,0.495 1.33,0.8887 0.413,0.4054 0.7231,0.8583 0.9306,1.3606 0.2075,0.5026 0.3121,1.0429 0.3121,1.6234 0,0.5746 -0.0896,1.1055 -0.2684,1.5908 -0.1769,0.4853 -0.4454,0.9213 -0.8011,1.3074 -0.4207,0.4549 -0.8907,0.7954 -1.4083,1.0258 -0.5196,0.2302 -1.0808,0.3464 -1.686,0.3464 -0.6109,0 -1.1721,-0.1182 -1.6861,-0.352 -0.5156,-0.2342 -0.9779,-0.5806 -1.3853,-1.0429 -0.3464,-0.3827 -0.6088,-0.8184 -0.786,-1.3073 -0.1789,-0.4873 -0.2682,-1.0106 -0.2682,-1.5682 z m 10.531,0.2055 h 0.6032 c 0.8127,0 1.4196,-0.1312 1.8176,-0.3957 0.3977,-0.2647 0.5956,-0.6661 0.5956,-1.2047 0,-0.5233 -0.1712,-0.9096 -0.512,-1.1551 -0.3424,-0.2455 -0.883,-0.3674 -1.6234,-0.3674 h -0.881 z m 0,3.9031 h -1.1761 v -8.1182 h 2.3426 c 0.9726,0 1.7166,0.2245 2.2306,0.6735 0.5116,0.451 0.7687,1.1019 0.7687,1.9525 0,0.6625 -0.2151,1.2141 -0.6432,1.6594 -0.4303,0.4437 -0.9839,0.6815 -1.6594,0.7158 l 2.3026,3.117 h -1.4729 l -2.6929,-3.7698 z m 6.3635,-1.0866 h 1.4273 c 0.9039,0 1.6177,-0.2627 2.143,-0.7897 0.5269,-0.5252 0.7897,-1.2407 0.7897,-2.143 0,-0.938 -0.2781,-1.6687 -0.8357,-2.1977 -0.5575,-0.5272 -1.33,-0.7917 -2.3139,-0.7917 h -1.2104 z m 1.1381,1.0866 h -2.2816 v -8.1182 h 2.6147 c 1.2198,0 2.2037,0.3767 2.9534,1.1322 0.7478,0.7537 1.1228,1.7393 1.1228,2.9554 0,0.6908 -0.1409,1.3206 -0.4206,1.8896 -0.2815,0.5692 -0.6852,1.0428 -1.2121,1.4215 -0.3578,0.2571 -0.7385,0.4417 -1.1438,0.5519 -0.4054,0.1123 -0.9496,0.1676 -1.6328,0.1676 z m 9.1154,-3.5073 -1.1438,-3.0827 -1.1644,3.0827 z m -2.7269,1.1437 -0.9133,2.3636 h -1.2447 l 3.1722,-8.1182 h 1.1438 l 3.1722,8.1182 h -1.2883 l -0.8906,-2.3636 z m 6.9517,2.3636 h -1.1761 v -8.1182 h 1.2104 l 3.9866,6.1447 -0.055,-6.1447 h 1.1588 v 8.1182 h -1.1265 l -4.0762,-6.3275 z"
         style="fill:#d9dadb;fill-rule:evenodd"
         id="path6698"
         inkscape:connector-curvature="0" />
      <path
         style="fill:#d9dadb;fill-rule:evenodd"
         d="m 55.195312,11.703125 -0.52539,0.878906 h 0.230469 l 0.675781,-0.878906 z m -39.296874,1.160156 c -0.2531,0 -0.489832,0.04457 -0.707032,0.134766 -0.2171,0.0892 -0.411937,0.222084 -0.585937,0.396484 -0.1883,0.1845 -0.330835,0.391194 -0.427735,0.621094 -0.0969,0.2302 -0.146484,0.471916 -0.146484,0.728516 0,0.5493 0.179663,1.0087 0.539062,1.375 0.359701,0.3673 0.809657,0.550781 1.347657,0.550781 0.3512,0 0.665765,-0.08381 0.947265,-0.253906 0.2815,-0.1707 0.506329,-0.41311 0.673828,-0.72461 h -0.427734 c -0.1511,0.2092 -0.32715,0.36921 -0.53125,0.47461 -0.2044,0.1054 -0.4341,0.158203 -0.6875,0.158203 -0.411,0 -0.759175,-0.152078 -1.046875,-0.455078 -0.2875,-0.3036 -0.431641,-0.677241 -0.431641,-1.119141 0,-0.4162 0.144394,-0.775925 0.433594,-1.078125 0.2894,-0.3013 0.637322,-0.451172 1.044922,-0.451172 0.2594,0 0.49066,0.05276 0.69336,0.160156 0.203299,0.1072 0.386581,0.276507 0.550781,0.503907 h 0.433593 c -0.1692,-0.3254 -0.400306,-0.57846 -0.691406,-0.75586 -0.2908,-0.1778 -0.616468,-0.265625 -0.980468,-0.265625 z m 3.871093,0 c -0.2515,0 -0.483719,0.04441 -0.699219,0.132813 -0.215399,0.0893 -0.412696,0.222337 -0.591796,0.398437 -0.1863,0.1828 -0.329035,0.389494 -0.427735,0.621094 -0.0977,0.231 -0.146484,0.473616 -0.146484,0.728516 0,0.5442 0.178256,1.001093 0.535156,1.371093 0.3571,0.3699 0.800072,0.554688 1.326172,0.554688 0.2747,0 0.529272,-0.05215 0.763672,-0.15625 0.2353,-0.1037 0.444559,-0.255738 0.630859,-0.460938 0.1604,-0.1774 0.281628,-0.37665 0.361328,-0.59375 0.0808,-0.2172 0.121094,-0.455843 0.121094,-0.714843 0,-0.262 -0.04703,-0.505722 -0.140625,-0.732422 -0.0935,-0.2265 -0.233622,-0.430482 -0.419922,-0.613281 -0.1811,-0.177501 -0.380809,-0.311191 -0.599609,-0.400391 -0.2191,-0.0902 -0.456991,-0.134766 -0.712891,-0.134766 z m 14.070313,0 c -0.2514,0 -0.485672,0.04441 -0.701172,0.132813 -0.2154,0.0893 -0.412697,0.222337 -0.591797,0.398437 -0.1863,0.1828 -0.327181,0.389494 -0.425781,0.621094 -0.0978,0.231 -0.148438,0.473616 -0.148438,0.728516 0,0.5442 0.18021,1.003046 0.53711,1.373047 0.3572,0.369899 0.798118,0.552734 1.324218,0.552734 0.2747,0 0.529272,-0.05215 0.763672,-0.15625 0.2353,-0.1037 0.446513,-0.255738 0.632813,-0.460938 0.1604,-0.1774 0.281628,-0.37665 0.361328,-0.59375 0.0808,-0.2172 0.121094,-0.455843 0.121094,-0.714843 0,-0.262 -0.04702,-0.503769 -0.140625,-0.730469 -0.0935,-0.2265 -0.233622,-0.432435 -0.419922,-0.615234 -0.1811,-0.177501 -0.38071,-0.311191 -0.59961,-0.400391 -0.2191,-0.0902 -0.45689,-0.134766 -0.71289,-0.134766 z m 21.132812,0 c -0.2515,0 -0.483819,0.04441 -0.699218,0.132813 -0.2154,0.0893 -0.412597,0.222337 -0.591797,0.398437 -0.1862,0.1828 -0.329035,0.389494 -0.427735,0.621094 -0.0978,0.231 -0.146484,0.473616 -0.146484,0.728516 0,0.5442 0.178256,1.003046 0.535156,1.373047 0.3571,0.369899 0.799972,0.552734 1.326172,0.552734 0.2746,0 0.529272,-0.05215 0.763672,-0.15625 0.2353,-0.1037 0.444659,-0.255738 0.630859,-0.460938 0.1605,-0.1774 0.281628,-0.37665 0.361328,-0.59375 0.0808,-0.2172 0.121094,-0.455843 0.121094,-0.714843 0,-0.262 -0.04702,-0.503769 -0.140625,-0.730469 -0.0935,-0.2265 -0.233722,-0.432435 -0.419922,-0.615234 -0.1811,-0.177501 -0.380809,-0.311191 -0.599609,-0.400391 -0.2191,-0.0902 -0.456991,-0.134766 -0.712891,-0.134766 z m 9.736328,0.0059 c -0.2883,0 -0.523378,0.0931 -0.705078,0.279297 -0.1819,0.1863 -0.271484,0.423143 -0.271484,0.714843 0,0.2285 0.05758,0.413188 0.175781,0.554688 0.1176,0.1417 0.311678,0.258862 0.580078,0.351562 0.0199,0.0068 0.04954,0.01735 0.08984,0.03125 0.5133,0.1689 0.769531,0.4186 0.769531,0.75 0,0.2282 -0.06115,0.409669 -0.185547,0.542969 -0.1253,0.1329 -0.294912,0.201172 -0.507812,0.201172 -0.1975,0 -0.356616,-0.06843 -0.478516,-0.203125 -0.1211,-0.134 -0.186359,-0.314516 -0.193359,-0.541016 h -0.345703 c 0.0051,0.3356 0.100909,0.6075 0.287109,0.8125 0.1862,0.2052 0.427763,0.306641 0.726563,0.306641 0.32,0 0.575431,-0.107119 0.769531,-0.324219 0.1931,-0.2172 0.291016,-0.504175 0.291016,-0.859375 0,-0.2336 -0.05165,-0.421253 -0.15625,-0.564453 -0.1049,-0.1434 -0.277826,-0.261616 -0.515626,-0.353516 -0.0661,-0.0258 -0.159856,-0.05746 -0.285156,-0.09766 -0.218,-0.0703 -0.365959,-0.134706 -0.443359,-0.191406 -0.0754,-0.0575 -0.131716,-0.119953 -0.166016,-0.189453 -0.0343,-0.0697 -0.05078,-0.152747 -0.05078,-0.248047 0,-0.1828 0.05678,-0.333572 0.171875,-0.451172 0.1142,-0.1185 0.262459,-0.177734 0.443359,-0.177734 0.1692,0 0.30565,0.05411 0.40625,0.162109 0.1003,0.1083 0.159835,0.261138 0.177735,0.460938 h 0.339843 c -0.0179,-0.306101 -0.109031,-0.543691 -0.269531,-0.712891 -0.1615,-0.169 -0.379597,-0.253906 -0.654297,-0.253906 z M 22.09375,12.935591 V 16.5977 h 0.353516 v -3.300781 h 0.53125 c 0.2602,0 0.441468,0.01352 0.542968,0.04102 0.1012,0.0283 0.187766,0.07347 0.259766,0.138671 0.0876,0.0788 0.153366,0.171644 0.197266,0.277344 0.0445,0.1054 0.06641,0.222863 0.06641,0.351563 0,0.2128 -0.0719,0.387937 -0.216797,0.523437 -0.1451,0.1358 -0.334606,0.203125 -0.566406,0.203125 H 22.91602 l 1.085937,1.765625 h 0.427735 l -0.884766,-1.429687 c 0.2534,-0.0181 0.463612,-0.130938 0.632812,-0.335938 0.1681,-0.2043 0.251954,-0.447268 0.251954,-0.730469 0,-0.1913 -0.04195,-0.374021 -0.126954,-0.544921 -0.0851,-0.1715 -0.199703,-0.308057 -0.345703,-0.410157 -0.1074,-0.0754 -0.226122,-0.129509 -0.357422,-0.162109 -0.1321,-0.0326 -0.305184,-0.04883 -0.521484,-0.04883 z m 2.863281,0 V 16.5977 H 25.3125 v -3.300781 h 0.529297 c 0.2602,0 0.441469,0.01352 0.542969,0.04102 0.1012,0.0283 0.187765,0.07347 0.259765,0.138671 0.0876,0.0788 0.153366,0.171644 0.197266,0.277344 0.0445,0.1054 0.06836,0.222863 0.06836,0.351563 0,0.2128 -0.07385,0.387937 -0.21875,0.523437 -0.1451,0.1358 -0.332553,0.203125 -0.564453,0.203125 h -0.347656 l 1.087891,1.765625 h 0.427734 l -0.886719,-1.429687 c 0.2534,-0.0181 0.463613,-0.130938 0.632813,-0.335938 0.1681,-0.2043 0.253906,-0.447268 0.253906,-0.730469 0,-0.1913 -0.04195,-0.374021 -0.126953,-0.544921 -0.085,-0.1715 -0.201657,-0.308057 -0.347657,-0.410157 -0.1075,-0.0754 -0.226221,-0.129509 -0.357421,-0.162109 -0.1321,-0.0326 -0.305185,-0.04883 -0.521485,-0.04883 z m 2.916016,0 V 16.5977 h 1.900391 v -0.353515 h -1.539063 v -1.304688 h 1.539063 v -0.361328 h -1.539063 v -1.28125 h 1.539063 v -0.361328 z m 2.275391,0 v 0.361328 h 0.732421 V 16.5977 h 0.359375 v -3.300781 h 0.732422 v -0.361328 z m 6.013671,0 V 16.5977 h 0.355469 v -3.300781 h 0.529297 c 0.2603,0 0.441469,0.01352 0.542969,0.04102 0.1012,0.0283 0.187765,0.07347 0.259765,0.138671 0.0876,0.0788 0.153366,0.171644 0.197266,0.277344 0.0445,0.1054 0.06836,0.222863 0.06836,0.351563 0,0.2128 -0.07385,0.387937 -0.21875,0.523437 -0.1451,0.1358 -0.332653,0.203125 -0.564453,0.203125 h -0.347656 l 1.087891,1.765625 h 0.425781 l -0.884766,-1.429687 c 0.2534,-0.0181 0.463613,-0.130938 0.632813,-0.335938 0.1681,-0.2043 0.251953,-0.447268 0.251953,-0.730469 0,-0.1913 -0.04195,-0.372068 -0.126953,-0.542968 -0.0851,-0.1715 -0.199803,-0.308056 -0.345703,-0.410156 -0.1075,-0.0754 -0.226122,-0.12951 -0.357422,-0.16211 -0.132,-0.0326 -0.305185,-0.05078 -0.521485,-0.05078 z m 4.369141,0 V 16.5977 h 0.878906 c 0.3742,0 0.650978,-0.02331 0.830078,-0.07031 0.1795,-0.0474 0.3464,-0.125175 0.5,-0.234375 0.2333,-0.1672 0.414016,-0.384191 0.541016,-0.650391 0.1279,-0.2661 0.191406,-0.559112 0.191406,-0.882812 0,-0.29 -0.05793,-0.561607 -0.173828,-0.816407 -0.116,-0.2549 -0.277881,-0.470484 -0.488281,-0.646484 -0.1485,-0.1262 -0.319725,-0.218691 -0.515625,-0.275391 -0.1948,-0.0575 -0.436056,-0.08594 -0.722656,-0.08594 z m 3.433594,0 V 16.5977 h 1.902344 v -0.353515 h -1.539063 v -1.304688 h 1.539063 v -0.361328 h -1.539063 v -1.28125 h 1.539063 v -0.361328 z m 4.033203,0 V 16.5977 h 0.359375 v -3.662109 z m 1.060547,0 V 16.5977 h 0.347656 v -3.234375 l 1.287109,3.234375 h 0.324219 l 1.28711,-3.234375 V 16.5977 h 0.34375 v -3.662109 h -0.529297 l -1.263672,3.183594 -1.265625,-3.183594 z m 7.845703,0 1.380859,3.662109 h 0.283203 l 1.378907,-3.662109 h -0.361328 l -1.16211,3.121094 -1.160156,-3.121094 z m 3.306641,0 V 16.5977 h 1.902343 V 16.244185 H 60.574219 V 14.94145 h 1.539062 v -0.363281 h -1.539062 v -1.28125 h 1.539062 v -0.361328 z m 2.580078,0 V 16.5977 h 0.361328 v -3.662109 z m -43.027344,0.277344 c 0.4164,0 0.771906,0.149871 1.066406,0.451171 0.2951,0.3013 0.44336,0.659672 0.44336,1.076172 0,0.4453 -0.142788,0.821454 -0.429688,1.126954 -0.2866,0.3048 -0.637134,0.457031 -1.052734,0.457031 -0.4257,0 -0.784019,-0.151725 -1.074219,-0.453125 -0.29,-0.3019 -0.435547,-0.675494 -0.435547,-1.121094 0,-0.2231 0.04894,-0.441397 0.148438,-0.654297 0.0995,-0.2137 0.238109,-0.394216 0.412109,-0.541015 0.1333,-0.112301 0.276594,-0.19746 0.433594,-0.25586 0.1565,-0.0576 0.319381,-0.08594 0.488281,-0.08594 z m 14.070312,0 c 0.4164,0 0.769954,0.149871 1.064454,0.451171 0.2951,0.3013 0.443359,0.659672 0.443359,1.076172 0,0.4453 -0.142788,0.821454 -0.429688,1.126954 -0.2866,0.3048 -0.637134,0.457031 -1.052734,0.457031 -0.4257,0 -0.784019,-0.151725 -1.074219,-0.453125 -0.29,-0.3019 -0.435547,-0.675494 -0.435547,-1.121094 0,-0.2231 0.05089,-0.441397 0.150391,-0.654297 0.0995,-0.2137 0.236056,-0.394216 0.410156,-0.541015 0.1332,-0.112301 0.278547,-0.19746 0.435547,-0.25586 0.1565,-0.0576 0.319381,-0.08594 0.488281,-0.08594 z m 21.132813,0 c 0.4164,0 0.771906,0.149871 1.066406,0.451171 0.2951,0.3013 0.443359,0.659672 0.443359,1.076172 0,0.4453 -0.142887,0.821454 -0.429687,1.126954 -0.2866,0.3048 -0.637134,0.457031 -1.052734,0.457031 -0.4258,0 -0.783919,-0.151725 -1.074219,-0.453125 -0.2899,-0.3019 -0.435547,-0.675494 -0.435547,-1.121094 0,-0.2231 0.05089,-0.441397 0.150391,-0.654297 0.0995,-0.2137 0.236156,-0.394216 0.410156,-0.541015 0.1333,-0.112301 0.276594,-0.19746 0.433594,-0.25586 0.1565,-0.0576 0.319381,-0.08594 0.488281,-0.08594 z m -14.082031,0.07226 h 0.662109 c 0.2815,0 0.494978,0.02356 0.642578,0.06836 0.1477,0.0436 0.281091,0.117003 0.400391,0.220703 0.1587,0.1372 0.281287,0.309019 0.367187,0.511719 0.0847,0.2024 0.128907,0.423662 0.128907,0.664062 0,0.479 -0.127407,0.849728 -0.378907,1.111328 -0.2517,0.2619 -0.610172,0.392578 -1.076172,0.392578 h -0.746093 z"
         transform="translate(164.4396,245.33753)"
         id="path6700"
         inkscape:connector-curvature="0" />
    </g>
  </g>
</svg>
